<svg height="512pt" viewBox="-26 0 512 512" width="512pt" xmlns="http://www.w3.org/2000/svg"><path d="m220.691406 97.101562h-26.484375c-4.875 0-8.828125-3.949218-8.828125-8.824218s3.953125-8.828125 8.828125-8.828125h26.484375v-26.484375c0-4.875 3.949219-8.828125 8.824219-8.828125 4.878906 0 8.828125 3.953125 8.828125 8.828125v26.484375c0 9.75-7.902344 17.652343-17.652344 17.652343zm0 0" fill="#95a5a5"/><path d="m126.765625 141.242188h93.925781c38.980469.050781 70.566406 31.640624 70.617188 70.621093v207.445313c0 21.941406 17.785156 39.726562 39.726562 39.726562 21.9375 0 39.722656-17.785156 39.722656-39.726562v-293.691406h35.3125v293.691406c0 41.441406-33.59375 75.035156-75.035156 75.035156s-75.035156-33.59375-75.035156-75.035156v-207.445313c0-19.503906-15.808594-35.3125-35.308594-35.3125h-70.621094zm0 0" fill="#bbd1b5"/><path d="m132.414062 264.828125c43.878907 0 79.449219 35.570313 79.449219 79.449219v150.066406c0 9.75-7.90625 17.65625-17.65625 17.65625h-123.585937c-9.75 0-17.65625-7.90625-17.65625-17.65625v-150.066406c0-43.878906 35.570312-79.449219 79.449218-79.449219zm0 0" fill="#71c285"/><path d="m132.414062 158.898438c-43.878906 0-79.449218 35.566406-79.449218 79.445312v61.792969h158.898437v-61.792969c0-43.878906-35.570312-79.445312-79.449219-79.445312zm0 0" fill="#71c285"/><path d="m52.964844 247.171875h158.898437v105.929687h-158.898437zm0 0" fill="#d1d4d1"/><g fill="#5e5f62"><path d="m176.550781 291.308594h-8.828125c-4.875 0-8.824218-3.949219-8.824218-8.824219 0-4.878906 3.949218-8.828125 8.824218-8.828125h8.828125c4.875 0 8.828125 3.949219 8.828125 8.828125 0 4.875-3.953125 8.824219-8.828125 8.824219zm0 0"/><path d="m132.414062 291.308594h-44.136718c-4.875 0-8.828125-3.949219-8.828125-8.824219 0-4.878906 3.953125-8.828125 8.828125-8.828125h44.136718c4.875 0 8.828126 3.949219 8.828126 8.828125 0 4.875-3.953126 8.824219-8.828126 8.824219zm0 0"/><path d="m150.070312 326.621094h-35.3125c-4.875 0-8.828124-3.953125-8.828124-8.828125s3.953124-8.828125 8.828124-8.828125h35.3125c4.875 0 8.828126 3.953125 8.828126 8.828125s-3.953126 8.828125-8.828126 8.828125zm0 0"/></g><path d="m150.070312 26.484375h-35.3125c-4.871093 0-8.828124 8.695313-8.828124 19.417969v117.585937h52.96875v-117.585937c0-10.722656-3.957032-19.417969-8.828126-19.417969zm0 0" fill="#7f8c8d"/><path d="m256 26.484375c0 14.625-11.855469 26.480469-26.484375 26.480469-14.625 0-26.480469-11.855469-26.480469-26.480469 0-14.628906 11.855469-26.484375 26.480469-26.484375 14.628906 0 26.484375 11.855469 26.484375 26.484375zm0 0" fill="#b0d3f0"/><path d="m406.070312 174.078125c30.453126-8.824219 52.964844-31.160156 52.964844-68.148437 0-43.871094-31.601562-105.929688-70.621094-105.929688-39.019531 0-70.621093 62.058594-70.621093 105.929688 0 36.988281 22.511719 59.324218 52.964843 68.148437zm0 0" fill="#9bc8c2"/><path d="m370.757812 56.761719c-3.378906 0-6.460937-1.929688-7.9375-4.96875-1.476562-3.042969-1.089843-6.65625 1-9.316407 5.523438-8.609374 14.480469-14.4375 24.59375-15.992187 10.109376 1.554687 19.066407 7.378906 24.59375 15.984375 2.914063 3.835938 2.214844 9.300781-1.574218 12.28125-3.785156 2.976562-9.261719 2.367188-12.304688-1.371094-2.609375-4.066406-6.359375-7.28125-10.777344-9.242187-4.347656 2.019531-8.042968 5.222656-10.65625 9.242187-1.667968 2.132813-4.226562 3.378906-6.9375 3.382813zm0 0" fill="#14a085"/><path d="m414.898438 105.929688c0 14.628906-11.859376 26.484374-26.484376 26.484374s-26.484374-11.855468-26.484374-26.484374c0-14.625 11.859374-26.480469 26.484374-26.480469s26.484376 11.855469 26.484376 26.480469zm0 0" fill="#e6e7e8"/><path d="m52.964844 70.621094h123.585937c9.75 0 17.65625 7.902344 17.65625 17.65625 0 9.75-7.90625 17.652344-17.65625 17.652344h-123.585937zm0 0" fill="#e4c05c"/><path d="m8.828125 52.964844h52.964844c4.875 0 8.828125 3.953125 8.828125 8.828125v52.964843c0 4.875-3.953125 8.828126-8.828125 8.828126h-52.964844c-4.875 0-8.828125-3.953126-8.828125-8.828126v-52.964843c0-4.875 3.953125-8.828125 8.828125-8.828125zm0 0" fill="#b19046"/><path d="m0 97.101562h35.308594c4.878906 0 8.828125-3.949218 8.828125-8.824218s-3.949219-8.828125-8.828125-8.828125h-35.308594zm0 0" fill="#e4c05c"/></svg>