<svg height="512pt" viewBox="-88 0 512 512.00028" width="512pt" xmlns="http://www.w3.org/2000/svg"><path d="m291.273438 123.585938 35.980468 54.316406c6.664063 10.503906 9.375 23.035156 7.644532 35.355468l-37.753907 268.359376c-2.457031 17.4375-17.390625 30.402343-35.003906 30.382812h-188.910156c-17.601563 0-32.515625-12.964844-34.964844-30.394531l-37.757813-268.355469c-1.726562-12.320312.980469-24.851562 7.644532-35.355469l35.949218-54.308593zm0 0" fill="#9fc9d3"/><path d="m38.113281 231.988281 32.46875 229.519531c1.230469 8.703126 8.679688 15.175782 17.46875 15.183594h159.269531c8.789063-.007812 16.238282-6.480468 17.46875-15.183594l32.460938-229.519531c.714844-5.058593-.796875-10.175781-4.144531-14.035156-3.347657-3.863281-8.199219-6.082031-13.308594-6.089844h-224.222656c-5.109375.003907-9.964844 2.226563-13.3125 6.085938-3.351563 3.859375-4.863281 8.980469-4.148438 14.039062zm0 0" fill="#547580"/><path d="m114.71875 441.378906c-4.308594-.003906-7.980469-3.121094-8.695312-7.371094l-26.480469-158.894531c-.675781-4.746093 2.554687-9.164062 7.28125-9.953125 4.726562-.792968 9.222656 2.332032 10.125 7.039063l26.484375 158.894531c.800781 4.808594-2.441406 9.355469-7.246094 10.164062-.484375.082032-.976562.125-1.46875.121094zm0 0" fill="#d1d4d1"/><path d="m220.652344 441.378906c-.492188.003906-.980469-.039062-1.464844-.121094-4.808594-.808593-8.050781-5.355468-7.25-10.164062l26.484375-158.894531c.453125-3.171875 2.589844-5.851563 5.582031-6.996094 2.992188-1.148437 6.371094-.582031 8.824219 1.476563 2.457031 2.058593 3.605469 5.285156 3 8.433593l-26.480469 158.894531c-.710937 4.25-4.386718 7.367188-8.695312 7.371094zm0 0" fill="#d1d4d1"/><path d="m167.6875 441.378906c-4.875 0-8.828125-3.953125-8.828125-8.828125v-141.238281c0-4.878906 3.953125-8.828125 8.828125-8.828125s8.824219 3.949219 8.824219 8.828125v141.238281c0 4.875-3.949219 8.828125-8.824219 8.828125zm0 0" fill="#d1d4d1"/><path d="m248.660156 191.804688c.292969-.34375.609375-.660157.882813-1.015626 1.945312-2.363281 3.769531-4.835937 5.507812-7.371093.496094-.714844.9375-1.445313 1.414063-2.167969 1.226562-1.898438 2.410156-3.832031 3.53125-5.808594.503906-.882812.988281-1.765625 1.464844-2.648437 1.078124-2.058594 2.082031-4.160157 3.039062-6.296875.324219-.742188.679688-1.464844.996094-2.214844 1.175781-2.871094 2.246094-5.8125 3.210937-8.828125.195313-.617187.347657-1.261719.53125-1.886719.707031-2.410156 1.34375-4.855468 1.878907-7.335937.222656-1.015625.417968-2.023438.601562-3.046875.425781-2.25.769531-4.539063 1.050781-6.839844.113281-.980469.257813-1.953125.34375-2.949219.300781-3.230469.496094-6.496093.496094-9.816406.144531-46.523437-29.988281-87.734375-74.363281-101.699219-44.378906-13.96875-92.679688 2.554688-119.207032 40.773438-26.523437 38.222656-25.105468 89.253906 3.503907 125.9375 28.609375 36.6875 77.757812 50.5 121.289062 34.085937l.679688-.125c.699219-.261719 1.359375-.589843 2.046875-.882812.953125-.386719 1.898437-.792969 2.835937-1.207031 2.066407-.917969 4.09375-1.894532 6.089844-2.929688.796875-.417969 1.597656-.804688 2.382813-1.238281 2.703124-1.5 5.34375-3.078125 7.894531-4.792969.308593-.210938.597656-.449219.882812-.660156 2.242188-1.539063 4.414063-3.160156 6.511719-4.867188.75-.609375 1.484375-1.242187 2.226562-1.878906 1.667969-1.421875 3.285157-2.894531 4.863282-4.414062.707031-.679688 1.402344-1.351563 2.09375-2.046876 1.851562-1.878906 3.625-3.820312 5.320312-5.828124zm0 0" fill="#d1d4d1"/><g fill="#35495e"><path d="m167.6875 61.792969c-4.875 0-8.828125-3.953125-8.828125-8.828125v-17.652344c0-4.878906 3.953125-8.828125 8.828125-8.828125s8.824219 3.949219 8.824219 8.828125v17.652344c0 4.875-3.949219 8.828125-8.824219 8.828125zm0 0"/><path d="m132.375 71.257812c-3.15625 0-6.074219-1.679687-7.652344-4.414062l-8.828125-15.289062c-2.398437-4.21875-.941406-9.582032 3.261719-12.007813 4.199219-2.429687 9.574219-1.007813 12.027344 3.179687l8.828125 15.289063c1.574219 2.730469 1.578125 6.09375.003906 8.824219-1.578125 2.730468-4.488281 4.414062-7.640625 4.417968zm0 0"/><path d="m106.519531 97.105469c-1.550781 0-3.074219-.40625-4.414062-1.183594l-15.289063-8.828125c-4.1875-2.453125-5.605468-7.828125-3.179687-12.03125 2.425781-4.199219 7.789062-5.65625 12.007812-3.257812l15.289063 8.828124c3.460937 1.996094 5.148437 6.070313 4.113281 9.929688s-4.53125 6.542969-8.527344 6.542969zm0 0"/><path d="m97.066406 132.414062h-17.65625c-4.875 0-8.828125-3.953124-8.828125-8.828124s3.953125-8.828126 8.828125-8.828126h17.65625c4.875 0 8.828125 3.953126 8.828125 8.828126s-3.953125 8.828124-8.828125 8.828124zm0 0"/><path d="m91.246094 176.550781c-3.992188 0-7.492188-2.683593-8.523438-6.542969-1.035156-3.859374.652344-7.929687 4.113282-9.929687l15.289062-8.824219c2.730469-1.605468 6.113281-1.617187 8.859375-.042968 2.746094 1.578124 4.4375 4.507812 4.429687 7.675781-.003906 3.167969-1.710937 6.089843-4.464843 7.65625l-15.289063 8.824219c-1.339844.777343-2.863281 1.183593-4.414062 1.183593zm0 0"/><path d="m123.546875 208.859375c-3.152344 0-6.0625-1.683594-7.636719-4.417969-1.574218-2.730468-1.574218-6.09375.003906-8.820312l8.824219-15.289063c1.566407-2.753906 4.488281-4.460937 7.65625-4.464843 3.167969-.007813 6.097657 1.683593 7.675781 4.429687 1.574219 2.746094 1.5625 6.128906-.042968 8.859375l-8.824219 15.289062c-1.578125 2.734376-4.5 4.417969-7.65625 4.414063zm0 0"/><path d="m167.6875 220.691406c-4.875 0-8.828125-3.953125-8.828125-8.828125v-17.65625c0-4.875 3.953125-8.828125 8.828125-8.828125s8.824219 3.953125 8.824219 8.828125v17.65625c0 4.875-3.949219 8.828125-8.824219 8.828125zm0 0"/><path d="m211.824219 208.859375c-3.15625.003906-6.074219-1.679687-7.652344-4.414063l-8.828125-15.289062c-1.601562-2.730469-1.617188-6.113281-.039062-8.859375 1.578124-2.746094 4.503906-4.4375 7.671874-4.429687 3.167969.003906 6.089844 1.710937 7.65625 4.464843l8.828126 15.289063c1.574218 2.726562 1.574218 6.089844 0 8.820312-1.574219 2.734375-4.484376 4.417969-7.636719 4.417969zm0 0"/><path d="m244.125 176.550781c-1.550781 0-3.074219-.40625-4.414062-1.183593l-15.289063-8.824219c-4.1875-2.457031-5.609375-7.828125-3.179687-12.03125 2.425781-4.203125 7.789062-5.65625 12.007812-3.257813l15.289062 8.824219c3.457032 2 5.144532 6.070313 4.113282 9.929687-1.035156 3.859376-4.53125 6.542969-8.527344 6.542969zm0 0"/><path d="m255.960938 132.414062h-17.652344c-4.878906 0-8.828125-3.953124-8.828125-8.828124s3.949219-8.828126 8.828125-8.828126h17.652344c4.875 0 8.828124 3.953126 8.828124 8.828126s-3.953124 8.828124-8.828124 8.828124zm0 0"/><path d="m228.851562 97.105469c-3.996093 0-7.492187-2.683594-8.527343-6.542969-1.03125-3.859375.65625-7.933594 4.113281-9.929688l15.289062-8.828124c2.734376-1.601563 6.117188-1.617188 8.863282-.039063s4.4375 4.503906 4.429687 7.671875c-.007812 3.167969-1.710937 6.089844-4.464843 7.65625l-15.289063 8.828125c-1.339844.777344-2.863281 1.183594-4.414063 1.183594zm0 0"/><path d="m202.996094 71.257812c-3.152344-.003906-6.0625-1.6875-7.636719-4.417968-1.574219-2.730469-1.574219-6.09375 0-8.824219l8.828125-15.289063c1.566406-2.753906 4.488281-4.457031 7.65625-4.464843 3.167969-.007813 6.09375 1.683593 7.671875 4.429687s1.5625 6.128906-.039063 8.863282l-8.828124 15.289062c-1.578126 2.734375-4.496094 4.414062-7.652344 4.414062zm0 0"/></g><path d="m167.6875 0c-49.535156-.101562-94.34375 29.382812-113.851562 74.914062-19.507813 45.53125-9.945313 98.3125 24.296874 134.105469 34.242188 35.792969 86.546876 47.683594 132.898438 30.207031l.792969-.140624c.8125-.308594 1.589843-.695313 2.382812-1.023438 1.121094-.449219 2.214844-.925781 3.320313-1.414062 2.410156-1.058594 4.773437-2.207032 7.0625-3.414063.882812-.484375 1.863281-.945313 2.78125-1.449219 3.140625-1.765625 6.230468-3.589844 9.195312-5.585937.363282-.25.699219-.523438 1.0625-.769531 2.605469-1.800782 5.136719-3.691407 7.589844-5.675782.882812-.714844 1.765625-1.457031 2.59375-2.199218 1.949219-1.65625 3.839844-3.375 5.675781-5.152344.824219-.796875 1.644531-1.582032 2.445313-2.394532 2.144531-2.1875 4.203125-4.457031 6.179687-6.804687.347657-.40625.714844-.777344 1.050781-1.183594 2.269532-2.761719 4.414063-5.640625 6.425782-8.597656.574218-.832031 1.097656-1.695313 1.644531-2.542969 1.441406-2.207031 2.8125-4.464844 4.113281-6.769531.582032-1.035156 1.15625-2.074219 1.710938-3.136719 1.261718-2.398437 2.429687-4.851562 3.53125-7.34375.378906-.882812.796875-1.703125 1.167968-2.578125 1.382813-3.34375 2.648438-6.761719 3.742188-10.246093.230469-.726563.40625-1.476563.617188-2.207032.828124-2.816406 1.570312-5.667968 2.199218-8.5625.253906-1.175781.484375-2.359375.703125-3.53125.496094-2.648437.882813-5.296875 1.21875-7.945312.132813-1.148438.292969-2.277344.398438-3.433594.351562-3.777344.582031-7.59375.582031-11.476562.015625-32.777344-12.988281-64.222657-36.15625-87.410157s-54.597656-36.222656-87.375-36.238281zm87.859375 131.769531c-.070313.820313-.183594 1.632813-.28125 2.453125-.238281 1.925782-.523437 3.824219-.882813 5.703125-.160156.882813-.320312 1.695313-.503906 2.535157-.449218 2.066406-.980468 4.105468-1.570312 6.117187-.152344.519531-.273438 1.058594-.441406 1.570313-.785157 2.488281-1.679688 4.933593-2.648438 7.316406-.257812.628906-.558594 1.230468-.832031 1.847656-.792969 1.765625-1.632813 3.53125-2.53125 5.25-.398438.753906-.804688 1.492188-1.21875 2.234375-.925781 1.652344-1.90625 3.257813-2.941407 4.839844-.386718.597656-.765624 1.214843-1.171874 1.765625-1.449219 2.117187-2.96875 4.164062-4.589844 6.175781-.238282.292969-.503906.558594-.742188.882813-1.421875 1.679687-2.886718 3.292968-4.414062 4.867187-.566406.582031-1.15625 1.136719-1.765625 1.703125-1.320313 1.269531-2.671875 2.5-4.0625 3.6875-.609375.523438-1.21875 1.050781-1.851563 1.5625-1.765625 1.421875-3.53125 2.773438-5.421875 4.054688-.253906.175781-.492187.378906-.757812.546874-2.117188 1.429688-4.324219 2.753907-6.566407 3.996094-.65625.363282-1.324218.691406-1.988281 1.035156-1.667969.882813-3.355469 1.675782-5.074219 2.445313-.785156.34375-1.574218.679687-2.367187 1.003906-.574219.230469-1.128906.503907-1.710937.726563l-.566407.105468c-36.132812 13.515626-76.859375 1.984376-100.542969-28.46875-23.6875-30.453124-24.839843-72.761718-2.847656-104.457031 21.992188-31.695312 62.027344-45.425781 98.84375-33.898437s61.875 45.636718 61.863282 84.214844c0 2.761718-.167969 5.484374-.414063 8.183593zm0 0" fill="#84b5cb"/><path d="m167.6875 132.414062c-4.875 0-8.828125-3.953124-8.828125-8.828124v-35.433594c0-4.875 3.953125-8.828125 8.828125-8.828125s8.824219 3.953125 8.824219 8.828125v35.433594c0 4.875-3.949219 8.828124-8.824219 8.828124zm0 0" fill="#cc4b4c"/><path d="m185.339844 123.585938c0 9.75-7.902344 17.65625-17.652344 17.65625-9.753906 0-17.65625-7.90625-17.65625-17.65625s7.902344-17.65625 17.65625-17.65625c9.75 0 17.652344 7.90625 17.652344 17.65625zm0 0" fill="#cc4b4c"/></svg>